<?xml version="1.0" encoding="UTF-8" standalone="no"?><!DOCTYPE svg PUBLIC "-//W3C//DTD SVG 1.1//EN" "http://www.w3.org/Graphics/SVG/1.1/DTD/svg11.dtd"><svg width="100%" height="100%" viewBox="0 0 427 94" version="1.1" xmlns="http://www.w3.org/2000/svg" xmlns:xlink="http://www.w3.org/1999/xlink" xml:space="preserve" xmlns:serif="http://www.serif.com/" style="fill-rule:evenodd;clip-rule:evenodd;stroke-linejoin:round;stroke-miterlimit:2;"><rect id="LOGO-Pfade" x="0" y="0" width="426.331" height="93.26" style="fill:none;"/><path d="M38.625,42.412c-3.025,1.856 -6.263,2.785 -9.714,2.785c-4.551,-0 -8.286,-1.509 -11.207,-4.527c-2.921,-3.017 -4.381,-6.866 -4.381,-11.545c-0,-4.551 1.501,-8.31 4.502,-11.28c3.001,-2.969 6.793,-4.453 11.376,-4.453c5.712,-0 10.795,2.791 15.249,8.375c4.422,-5.584 9.666,-8.375 15.733,-8.375c4.648,-0 8.448,1.484 11.401,4.453c2.953,2.97 4.429,6.794 4.429,11.473c0,4.68 -1.493,8.504 -4.478,11.474c-2.985,2.969 -6.834,4.453 -11.545,4.453c-3.589,0 -6.908,-1.127 -9.955,-3.382l-0,14.227c0.694,-1.164 1.56,-2.25 2.599,-3.258c3.132,-3.04 6.996,-4.561 11.592,-4.561c4.312,0 8.008,1.551 11.089,4.653c3.081,3.101 4.622,6.818 4.622,11.15c0,4.393 -1.561,8.135 -4.683,11.226c-3.122,3.091 -6.889,4.637 -11.302,4.637c-4.414,0 -8.186,-1.551 -11.318,-4.652c-1.662,-1.645 -2.882,-3.469 -3.662,-5.472c-0.607,1.718 -1.473,3.252 -2.598,4.602c-1.403,1.688 -3.188,3.031 -5.354,4.027c-2.166,0.997 -4.388,1.495 -6.666,1.495c-4.535,0 -8.358,-1.525 -11.47,-4.576c-3.112,-3.051 -4.668,-6.793 -4.668,-11.226c0,-4.292 1.546,-8.003 4.637,-11.135c3.092,-3.132 6.752,-4.698 10.983,-4.698c0.671,-0 1.688,0.061 3.05,0.183l0,12.569c-0.935,-0.733 -1.871,-1.099 -2.806,-1.099c-1.18,0 -2.192,0.432 -3.036,1.297c-0.844,0.864 -1.266,1.906 -1.266,3.127c0,1.179 0.438,2.191 1.312,3.035c0.875,0.844 1.922,1.266 3.142,1.266c2.929,0 4.393,-2.023 4.393,-6.071l0,-20.197Zm11.731,-13.142c2.679,3.776 5.374,5.664 8.084,5.664c1.614,-0 2.978,-0.541 4.091,-1.622c1.113,-1.081 1.67,-2.428 1.67,-4.042c0,-1.581 -0.565,-2.913 -1.694,-3.994c-1.13,-1.081 -2.501,-1.621 -4.115,-1.621c-2.711,-0 -5.39,1.871 -8.036,5.615Zm-11.328,0.048c-2.678,-3.743 -5.389,-5.615 -8.133,-5.615c-1.613,-0 -2.977,0.541 -4.09,1.622c-1.114,1.081 -1.67,2.412 -1.67,3.993c-0,1.582 0.565,2.913 1.694,3.994c1.13,1.081 2.501,1.622 4.115,1.622c2.679,-0 5.373,-1.872 8.084,-5.616Zm24.893,30.21c-1.22,0 -2.257,0.443 -3.112,1.327c-0.854,0.885 -1.281,1.968 -1.281,3.249c0,1.261 0.432,2.339 1.297,3.234c0.864,0.895 1.896,1.342 3.096,1.342c1.22,0 2.263,-0.447 3.127,-1.342c0.864,-0.895 1.297,-1.973 1.297,-3.234c-0,-1.281 -0.428,-2.364 -1.282,-3.249c-0.854,-0.884 -1.901,-1.327 -3.142,-1.327Z"/><g><path d="M94.799,14.794l8.65,-0c1.565,-0 2.983,0.257 4.256,0.77c1.272,0.514 2.358,1.279 3.257,2.294c0.899,1.016 1.593,2.288 2.083,3.818c0.491,1.529 0.736,3.309 0.736,5.34c-0,2.032 -0.245,3.812 -0.736,5.341c-0.49,1.53 -1.184,2.802 -2.083,3.818c-0.899,1.015 -1.985,1.78 -3.257,2.294c-1.273,0.513 -2.691,0.77 -4.256,0.77l-8.65,0l0,-24.445Zm8.65,20.943c1.822,-0 3.293,-0.572 4.413,-1.716c1.121,-1.144 1.681,-2.825 1.681,-5.043l0,-3.923c0,-2.218 -0.56,-3.899 -1.681,-5.043c-1.12,-1.144 -2.591,-1.716 -4.413,-1.716l-4.692,-0l-0,17.441l4.692,-0Z" style="fill-rule:nonzero;"/><path d="M118.754,39.239l0,-18.211l3.817,-0l0,3.502l0.176,-0c0.256,-0.934 0.793,-1.751 1.611,-2.452c0.817,-0.7 1.949,-1.05 3.397,-1.05l1.015,-0l0,3.677l-1.506,-0c-1.517,-0 -2.679,0.245 -3.484,0.735c-0.806,0.491 -1.209,1.214 -1.209,2.172l0,11.627l-3.817,0Z" style="fill-rule:nonzero;"/><path d="M139.627,39.659c-1.261,0 -2.411,-0.222 -3.45,-0.665c-1.039,-0.444 -1.92,-1.08 -2.644,-1.909c-0.724,-0.829 -1.284,-1.833 -1.681,-3.012c-0.397,-1.179 -0.595,-2.492 -0.595,-3.94c-0,-1.447 0.198,-2.761 0.595,-3.94c0.397,-1.179 0.957,-2.183 1.681,-3.012c0.724,-0.828 1.605,-1.465 2.644,-1.908c1.039,-0.444 2.189,-0.666 3.45,-0.666c1.261,0 2.411,0.222 3.45,0.666c1.039,0.443 1.92,1.08 2.644,1.908c0.724,0.829 1.284,1.833 1.681,3.012c0.397,1.179 0.595,2.493 0.595,3.94c0,1.448 -0.198,2.761 -0.595,3.94c-0.397,1.179 -0.957,2.183 -1.681,3.012c-0.724,0.829 -1.605,1.465 -2.644,1.909c-1.039,0.443 -2.189,0.665 -3.45,0.665Zm0,-3.187c1.308,0 2.358,-0.4 3.152,-1.201c0.794,-0.802 1.191,-2.003 1.191,-3.605l-0,-3.065c-0,-1.602 -0.397,-2.804 -1.191,-3.605c-0.794,-0.801 -1.844,-1.202 -3.152,-1.202c-1.307,0 -2.358,0.401 -3.152,1.202c-0.794,0.801 -1.191,2.003 -1.191,3.605l0,3.065c0,1.602 0.397,2.803 1.191,3.605c0.794,0.801 1.845,1.201 3.152,1.201Z" style="fill-rule:nonzero;"/><path d="M152.55,13.323l3.818,-0l-0,10.717l0.175,-0c0.397,-0.981 0.998,-1.798 1.803,-2.452c0.806,-0.654 1.909,-0.981 3.31,-0.981c1.868,0 3.321,0.613 4.36,1.839c1.039,1.226 1.559,2.971 1.559,5.236l-0,11.557l-3.818,0l0,-11.102c0,-2.825 -1.144,-4.238 -3.432,-4.238c-0.49,0 -0.975,0.065 -1.453,0.193c-0.479,0.128 -0.905,0.321 -1.279,0.578c-0.373,0.257 -0.671,0.584 -0.893,0.981c-0.222,0.396 -0.332,0.852 -0.332,1.365l-0,12.223l-3.818,0l0,-25.916Z" style="fill-rule:nonzero;"/><path d="M173.178,39.239l0,-18.211l3.817,-0l0,3.012l0.176,-0c0.396,-0.981 0.998,-1.798 1.803,-2.452c0.806,-0.654 1.909,-0.981 3.31,-0.981c1.868,0 3.321,0.613 4.36,1.839c1.039,1.226 1.558,2.971 1.558,5.236l0,11.557l-3.817,0l0,-11.067c0,-2.848 -1.144,-4.273 -3.432,-4.273c-0.49,0 -0.975,0.065 -1.454,0.193c-0.478,0.128 -0.904,0.321 -1.278,0.578c-0.373,0.257 -0.671,0.584 -0.893,0.981c-0.222,0.396 -0.333,0.863 -0.333,1.4l0,12.188l-3.817,0Z" style="fill-rule:nonzero;"/><path d="M200.95,39.659c-1.307,0 -2.475,-0.222 -3.502,-0.665c-1.027,-0.444 -1.903,-1.08 -2.626,-1.909c-0.724,-0.829 -1.279,-1.833 -1.664,-3.012c-0.385,-1.179 -0.578,-2.492 -0.578,-3.94c0,-1.447 0.193,-2.761 0.578,-3.94c0.385,-1.179 0.94,-2.183 1.664,-3.012c0.723,-0.828 1.599,-1.465 2.626,-1.908c1.027,-0.444 2.195,-0.666 3.502,-0.666c1.331,0 2.504,0.234 3.52,0.701c1.016,0.467 1.862,1.115 2.539,1.944c0.677,0.828 1.185,1.791 1.524,2.889c0.338,1.097 0.507,2.276 0.507,3.537l0,1.436l-12.502,-0l-0,0.591c-0,1.392 0.414,2.535 1.243,3.428c0.829,0.893 2.014,1.339 3.555,1.339c1.12,0 2.066,-0.243 2.836,-0.731c0.771,-0.487 1.425,-1.148 1.962,-1.983l2.241,2.213c-0.677,1.124 -1.658,2.02 -2.942,2.687c-1.284,0.668 -2.778,1.001 -4.483,1.001Zm0,-16.075c-0.653,0 -1.255,0.117 -1.803,0.35c-0.549,0.234 -1.016,0.561 -1.401,0.981c-0.385,0.42 -0.683,0.922 -0.893,1.506c-0.21,0.584 -0.315,1.226 -0.315,1.926l-0,0.245l8.475,0l-0,-0.35c-0,-1.401 -0.362,-2.527 -1.086,-3.379c-0.724,-0.853 -1.716,-1.279 -2.977,-1.279Z" style="fill-rule:nonzero;"/><path d="M213.593,39.239l0,-18.211l3.818,-0l-0,3.012l0.175,-0c0.397,-0.981 0.998,-1.798 1.803,-2.452c0.806,-0.654 1.909,-0.981 3.31,-0.981c1.868,0 3.321,0.613 4.36,1.839c1.039,1.226 1.559,2.971 1.559,5.236l-0,11.557l-3.818,0l0,-11.067c0,-2.848 -1.144,-4.273 -3.432,-4.273c-0.49,0 -0.975,0.065 -1.453,0.193c-0.479,0.128 -0.905,0.321 -1.279,0.578c-0.373,0.257 -0.671,0.584 -0.893,0.981c-0.221,0.396 -0.332,0.863 -0.332,1.4l-0,12.188l-3.818,0Z" style="fill-rule:nonzero;"/><path d="M247.564,39.239c-1.003,0 -1.774,-0.286 -2.311,-0.858c-0.537,-0.572 -0.864,-1.302 -0.981,-2.189l-0.175,0c-0.35,1.144 -0.992,2.008 -1.926,2.592c-0.934,0.583 -2.066,0.875 -3.397,0.875c-1.891,0 -3.345,-0.49 -4.36,-1.471c-1.016,-0.98 -1.524,-2.299 -1.524,-3.957c0,-1.821 0.66,-3.187 1.979,-4.098c1.319,-0.91 3.251,-1.366 5.796,-1.366l3.292,0l0,-1.54c0,-1.121 -0.303,-1.985 -0.91,-2.592c-0.607,-0.607 -1.553,-0.911 -2.837,-0.911c-1.074,0 -1.95,0.234 -2.627,0.701c-0.677,0.467 -1.249,1.062 -1.716,1.786l-2.276,-2.066c0.607,-1.028 1.459,-1.874 2.556,-2.539c1.098,-0.666 2.534,-0.999 4.308,-0.999c2.358,0 4.168,0.549 5.428,1.646c1.261,1.098 1.892,2.674 1.892,4.728l-0,9.141l1.926,0l-0,3.117l-2.137,0Zm-7.704,-2.487c1.19,0 2.171,-0.262 2.942,-0.788c0.77,-0.525 1.155,-1.231 1.155,-2.118l0,-2.627l-3.222,0c-2.638,0 -3.957,0.817 -3.957,2.452l-0,0.63c-0,0.817 0.274,1.43 0.823,1.839c0.548,0.408 1.301,0.612 2.259,0.612Z" style="fill-rule:nonzero;"/><path d="M264.795,36.227l-0.14,0c-0.163,0.444 -0.379,0.876 -0.648,1.296c-0.268,0.42 -0.607,0.788 -1.015,1.103c-0.409,0.315 -0.899,0.566 -1.471,0.753c-0.572,0.187 -1.232,0.28 -1.979,0.28c-1.891,0 -3.356,-0.607 -4.395,-1.821c-1.039,-1.214 -1.559,-2.953 -1.559,-5.218l0,-11.592l3.818,-0l-0,11.102c-0,2.825 1.167,4.237 3.502,4.237c0.49,0 0.969,-0.064 1.436,-0.192c0.467,-0.129 0.881,-0.321 1.243,-0.578c0.362,-0.257 0.654,-0.584 0.876,-0.981c0.221,-0.397 0.332,-0.864 0.332,-1.401l0,-12.187l3.818,-0l-0,18.211l-3.818,0l0,-3.012Z" style="fill-rule:nonzero;"/><path d="M275.337,24.145l-2.767,-0l0,-3.117l2.767,-0l-0,-3.012c-0,-1.471 0.385,-2.621 1.156,-3.45c0.77,-0.829 1.926,-1.243 3.467,-1.243l3.012,-0l-0,3.117l-3.818,-0l0,4.588l3.818,-0l-0,3.117l-3.818,-0l0,15.094l-3.817,0l-0,-15.094Z" style="fill-rule:nonzero;"/><path d="M286.614,39.239l-0,-18.211l3.817,-0l0,3.012l0.175,-0c0.397,-0.981 0.999,-1.798 1.804,-2.452c0.806,-0.654 1.909,-0.981 3.31,-0.981c1.867,0 3.321,0.613 4.36,1.839c1.039,1.226 1.558,2.971 1.558,5.236l0,11.557l-3.817,0l-0,-11.067c-0,-2.848 -1.144,-4.273 -3.432,-4.273c-0.491,0 -0.975,0.065 -1.454,0.193c-0.478,0.128 -0.904,0.321 -1.278,0.578c-0.374,0.257 -0.671,0.584 -0.893,0.981c-0.222,0.396 -0.333,0.863 -0.333,1.4l0,12.188l-3.817,0Z" style="fill-rule:nonzero;"/><path d="M320.585,39.239c-1.004,0 -1.774,-0.286 -2.311,-0.858c-0.537,-0.572 -0.864,-1.302 -0.981,-2.189l-0.175,0c-0.35,1.144 -0.992,2.008 -1.926,2.592c-0.934,0.583 -2.067,0.875 -3.397,0.875c-1.892,0 -3.345,-0.49 -4.361,-1.471c-1.015,-0.98 -1.523,-2.299 -1.523,-3.957c-0,-1.821 0.66,-3.187 1.979,-4.098c1.319,-0.91 3.251,-1.366 5.796,-1.366l3.292,0l-0,-1.54c-0,-1.121 -0.304,-1.985 -0.911,-2.592c-0.607,-0.607 -1.552,-0.911 -2.836,-0.911c-1.074,0 -1.95,0.234 -2.627,0.701c-0.677,0.467 -1.249,1.062 -1.716,1.786l-2.277,-2.066c0.607,-1.028 1.46,-1.874 2.557,-2.539c1.097,-0.666 2.533,-0.999 4.308,-0.999c2.358,0 4.167,0.549 5.428,1.646c1.261,1.098 1.891,2.674 1.891,4.728l0,9.141l1.926,0l0,3.117l-2.136,0Zm-7.705,-2.487c1.191,0 2.172,-0.262 2.942,-0.788c0.771,-0.525 1.156,-1.231 1.156,-2.118l-0,-2.627l-3.222,0c-2.638,0 -3.958,0.817 -3.958,2.452l0,0.63c0,0.817 0.275,1.43 0.823,1.839c0.549,0.408 1.302,0.612 2.259,0.612Z" style="fill-rule:nonzero;"/><path d="M326.784,13.323l3.817,-0l0,10.717l0.175,-0c0.397,-0.981 0.999,-1.798 1.804,-2.452c0.806,-0.654 1.909,-0.981 3.31,-0.981c1.868,0 3.321,0.613 4.36,1.839c1.039,1.226 1.558,2.971 1.558,5.236l0,11.557l-3.817,0l0,-11.102c0,-2.825 -1.144,-4.238 -3.432,-4.238c-0.49,0 -0.975,0.065 -1.454,0.193c-0.478,0.128 -0.904,0.321 -1.278,0.578c-0.373,0.257 -0.671,0.584 -0.893,0.981c-0.222,0.396 -0.333,0.852 -0.333,1.365l0,12.223l-3.817,0l-0,-25.916Z" style="fill-rule:nonzero;"/><path d="M347.412,39.239l-0,-18.211l3.817,-0l0,3.012l0.175,-0c0.187,-0.467 0.415,-0.911 0.683,-1.331c0.269,-0.421 0.596,-0.788 0.981,-1.103c0.385,-0.316 0.84,-0.561 1.366,-0.736c0.525,-0.175 1.138,-0.263 1.838,-0.263c1.238,0 2.335,0.304 3.292,0.911c0.958,0.607 1.658,1.541 2.102,2.802l0.105,-0c0.327,-1.028 0.957,-1.903 1.891,-2.627c0.934,-0.724 2.136,-1.086 3.607,-1.086c1.821,0 3.234,0.613 4.238,1.839c1.004,1.226 1.506,2.971 1.506,5.236l-0,11.557l-3.818,0l0,-11.102c0,-1.401 -0.268,-2.457 -0.805,-3.169c-0.537,-0.713 -1.389,-1.069 -2.557,-1.069c-0.49,0 -0.957,0.065 -1.4,0.193c-0.444,0.128 -0.835,0.321 -1.174,0.578c-0.338,0.257 -0.613,0.584 -0.823,0.981c-0.21,0.396 -0.315,0.852 -0.315,1.365l0,12.223l-3.817,0l-0,-11.102c-0,-2.825 -1.109,-4.238 -3.327,-4.238c-0.467,0 -0.928,0.065 -1.384,0.193c-0.455,0.128 -0.858,0.321 -1.208,0.578c-0.35,0.257 -0.63,0.584 -0.841,0.981c-0.21,0.396 -0.315,0.852 -0.315,1.365l0,12.223l-3.817,0Z" style="fill-rule:nonzero;"/><path d="M385.761,39.659c-1.308,0 -2.475,-0.222 -3.502,-0.665c-1.028,-0.444 -1.903,-1.08 -2.627,-1.909c-0.724,-0.829 -1.278,-1.833 -1.664,-3.012c-0.385,-1.179 -0.577,-2.492 -0.577,-3.94c-0,-1.447 0.192,-2.761 0.577,-3.94c0.386,-1.179 0.94,-2.183 1.664,-3.012c0.724,-0.828 1.599,-1.465 2.627,-1.908c1.027,-0.444 2.194,-0.666 3.502,-0.666c1.331,0 2.504,0.234 3.52,0.701c1.015,0.467 1.862,1.115 2.539,1.944c0.677,0.828 1.185,1.791 1.523,2.889c0.339,1.097 0.508,2.276 0.508,3.537l-0,1.436l-12.503,-0l0,0.591c0,1.392 0.415,2.535 1.243,3.428c0.829,0.893 2.014,1.339 3.555,1.339c1.121,0 2.066,-0.243 2.837,-0.731c0.77,-0.487 1.424,-1.148 1.961,-1.983l2.241,2.213c-0.677,1.124 -1.657,2.02 -2.941,2.687c-1.284,0.668 -2.779,1.001 -4.483,1.001Zm-0,-16.075c-0.654,0 -1.255,0.117 -1.804,0.35c-0.548,0.234 -1.015,0.561 -1.401,0.981c-0.385,0.42 -0.683,0.922 -0.893,1.506c-0.21,0.584 -0.315,1.226 -0.315,1.926l0,0.245l8.475,0l0,-0.35c0,-1.401 -0.362,-2.527 -1.085,-3.379c-0.724,-0.853 -1.716,-1.279 -2.977,-1.279Z" style="fill-rule:nonzero;"/><path d="M398.404,39.239l-0,-18.211l3.817,-0l0,3.012l0.175,-0c0.397,-0.981 0.998,-1.798 1.804,-2.452c0.805,-0.654 1.909,-0.981 3.309,-0.981c1.868,0 3.322,0.613 4.361,1.839c1.039,1.226 1.558,2.971 1.558,5.236l0,11.557l-3.817,0l-0,-11.067c-0,-2.848 -1.144,-4.273 -3.432,-4.273c-0.491,0 -0.975,0.065 -1.454,0.193c-0.478,0.128 -0.905,0.321 -1.278,0.578c-0.374,0.257 -0.671,0.584 -0.893,0.981c-0.222,0.396 -0.333,0.863 -0.333,1.4l0,12.188l-3.817,0Z" style="fill-rule:nonzero;"/><path d="M102.119,79.934c-2.055,0 -3.8,-0.373 -5.236,-1.12c-1.436,-0.747 -2.668,-1.751 -3.695,-3.012l2.732,-2.557c0.864,1.051 1.815,1.845 2.854,2.382c1.039,0.537 2.224,0.805 3.555,0.805c1.564,0 2.743,-0.35 3.537,-1.05c0.794,-0.701 1.191,-1.646 1.191,-2.837c-0,-0.957 -0.28,-1.716 -0.841,-2.277c-0.56,-0.56 -1.552,-0.98 -2.977,-1.26l-2.171,-0.386c-2.382,-0.443 -4.168,-1.225 -5.358,-2.346c-1.191,-1.121 -1.787,-2.662 -1.787,-4.623c0,-1.074 0.205,-2.049 0.613,-2.924c0.409,-0.876 0.981,-1.611 1.716,-2.207c0.736,-0.595 1.629,-1.056 2.68,-1.383c1.05,-0.327 2.229,-0.49 3.537,-0.49c1.844,-0 3.444,0.321 4.798,0.963c1.354,0.642 2.51,1.57 3.467,2.784l-2.767,2.452c-0.63,-0.818 -1.401,-1.471 -2.311,-1.962c-0.911,-0.49 -2.043,-0.735 -3.397,-0.735c-1.401,-0 -2.487,0.28 -3.257,0.84c-0.771,0.561 -1.156,1.378 -1.156,2.452c-0,1.027 0.315,1.792 0.946,2.294c0.63,0.502 1.611,0.881 2.941,1.138l2.172,0.455c2.451,0.467 4.243,1.261 5.376,2.382c1.132,1.121 1.698,2.661 1.698,4.623c0,1.144 -0.198,2.183 -0.595,3.117c-0.397,0.934 -0.975,1.733 -1.734,2.399c-0.759,0.665 -1.687,1.179 -2.784,1.541c-1.097,0.362 -2.347,0.542 -3.747,0.542Z" style="fill-rule:nonzero;"/><path d="M126.494,76.502l-0.14,0c-0.164,0.444 -0.38,0.876 -0.648,1.296c-0.269,0.42 -0.607,0.788 -1.016,1.103c-0.408,0.316 -0.899,0.566 -1.471,0.753c-0.572,0.187 -1.231,0.28 -1.978,0.28c-1.892,0 -3.357,-0.607 -4.396,-1.821c-1.039,-1.214 -1.558,-2.953 -1.558,-5.218l-0,-11.592l3.817,-0l0,11.102c0,2.825 1.168,4.237 3.502,4.237c0.491,0 0.969,-0.064 1.436,-0.192c0.467,-0.129 0.882,-0.321 1.244,-0.578c0.361,-0.257 0.653,-0.584 0.875,-0.981c0.222,-0.397 0.333,-0.864 0.333,-1.401l-0,-12.187l3.817,-0l0,18.211l-3.817,0l-0,-3.012Zm-7.145,-18.351c-0.793,-0 -1.354,-0.175 -1.681,-0.525c-0.327,-0.351 -0.49,-0.794 -0.49,-1.331l0,-0.631c0,-0.537 0.163,-0.98 0.49,-1.331c0.327,-0.35 0.888,-0.525 1.681,-0.525c0.794,0 1.355,0.175 1.681,0.525c0.327,0.351 0.491,0.794 0.491,1.331l-0,0.631c-0,0.537 -0.164,0.98 -0.491,1.331c-0.326,0.35 -0.887,0.525 -1.681,0.525Zm7.005,-0c-0.794,-0 -1.354,-0.175 -1.681,-0.525c-0.327,-0.351 -0.491,-0.794 -0.491,-1.331l0,-0.631c0,-0.537 0.164,-0.98 0.491,-1.331c0.327,-0.35 0.887,-0.525 1.681,-0.525c0.794,0 1.354,0.175 1.681,0.525c0.327,0.351 0.49,0.794 0.49,1.331l0,0.631c0,0.537 -0.163,0.98 -0.49,1.331c-0.327,0.35 -0.887,0.525 -1.681,0.525Z" style="fill-rule:nonzero;"/><path d="M147.227,76.502l-0.175,0c-0.397,1.074 -1.045,1.915 -1.944,2.522c-0.899,0.607 -1.955,0.91 -3.17,0.91c-2.311,0 -4.097,-0.834 -5.358,-2.504c-1.261,-1.669 -1.891,-4.01 -1.891,-7.021c-0,-3.012 0.63,-5.353 1.891,-7.022c1.261,-1.67 3.047,-2.504 5.358,-2.504c1.215,-0 2.271,0.297 3.17,0.893c0.899,0.595 1.547,1.441 1.944,2.539l0.175,-0l-0,-10.717l3.817,0l0,25.916l-3.817,0l-0,-3.012Zm-4.133,0.14c1.168,0 2.148,-0.286 2.942,-0.858c0.794,-0.572 1.191,-1.325 1.191,-2.259l-0,-6.233c-0,-0.934 -0.397,-1.687 -1.191,-2.259c-0.794,-0.572 -1.774,-0.858 -2.942,-0.858c-1.331,-0 -2.393,0.426 -3.187,1.278c-0.794,0.852 -1.191,1.979 -1.191,3.38l0,3.151c0,1.401 0.397,2.528 1.191,3.38c0.794,0.852 1.856,1.278 3.187,1.278Z" style="fill-rule:nonzero;"/><path d="M160.395,79.514c-1.307,0 -2.282,-0.333 -2.924,-0.998c-0.642,-0.665 -0.963,-1.593 -0.963,-2.784l-0,-22.134l3.817,0l-0,22.799l2.522,0l-0,3.117l-2.452,0Z" style="fill-rule:nonzero;"/><path d="M168.415,58.046c-0.794,-0 -1.372,-0.187 -1.734,-0.561c-0.361,-0.373 -0.542,-0.852 -0.542,-1.435l-0,-0.596c-0,-0.584 0.181,-1.062 0.542,-1.436c0.362,-0.373 0.94,-0.56 1.734,-0.56c0.794,-0 1.366,0.187 1.716,0.56c0.35,0.374 0.525,0.852 0.525,1.436l0,0.596c0,0.583 -0.175,1.062 -0.525,1.435c-0.35,0.374 -0.922,0.561 -1.716,0.561Zm-1.926,3.257l3.817,-0l0,18.211l-3.817,0l-0,-18.211Z" style="fill-rule:nonzero;"/><path d="M182.809,79.934c-1.307,0 -2.475,-0.221 -3.502,-0.665c-1.027,-0.444 -1.891,-1.08 -2.592,-1.909c-0.7,-0.829 -1.237,-1.832 -1.611,-3.012c-0.373,-1.179 -0.56,-2.492 -0.56,-3.939c-0,-1.448 0.187,-2.761 0.56,-3.94c0.374,-1.18 0.911,-2.183 1.611,-3.012c0.701,-0.829 1.565,-1.465 2.592,-1.909c1.027,-0.444 2.195,-0.665 3.502,-0.665c1.821,-0 3.315,0.408 4.483,1.225c1.167,0.817 2.019,1.903 2.556,3.257l-3.152,1.471c-0.256,-0.84 -0.706,-1.512 -1.348,-2.013c-0.642,-0.502 -1.488,-0.753 -2.539,-0.753c-1.401,-0 -2.457,0.436 -3.169,1.309c-0.713,0.873 -1.069,2.009 -1.069,3.405l0,3.249c0,1.397 0.356,2.532 1.069,3.405c0.712,0.873 1.768,1.309 3.169,1.309c1.121,0 2.014,-0.274 2.679,-0.823c0.666,-0.548 1.197,-1.278 1.594,-2.188l2.907,1.541c-0.608,1.5 -1.518,2.651 -2.732,3.454c-1.214,0.802 -2.697,1.203 -4.448,1.203Z" style="fill-rule:nonzero;"/><path d="M193.631,53.598l3.817,0l0,10.717l0.175,-0c0.397,-0.981 0.998,-1.798 1.804,-2.452c0.805,-0.654 1.909,-0.98 3.309,-0.98c1.868,-0 3.322,0.612 4.361,1.838c1.039,1.226 1.558,2.971 1.558,5.236l0,11.557l-3.817,0l-0,-11.102c-0,-2.825 -1.144,-4.237 -3.432,-4.237c-0.491,-0 -0.975,0.064 -1.454,0.192c-0.478,0.129 -0.904,0.321 -1.278,0.578c-0.374,0.257 -0.671,0.584 -0.893,0.981c-0.222,0.397 -0.333,0.852 -0.333,1.366l0,12.222l-3.817,0l-0,-25.916Z" style="fill-rule:nonzero;"/><path d="M221.088,79.934c-1.308,0 -2.475,-0.221 -3.502,-0.665c-1.028,-0.444 -1.903,-1.08 -2.627,-1.909c-0.724,-0.829 -1.278,-1.832 -1.663,-3.012c-0.386,-1.179 -0.578,-2.492 -0.578,-3.939c-0,-1.448 0.192,-2.761 0.578,-3.94c0.385,-1.18 0.939,-2.183 1.663,-3.012c0.724,-0.829 1.599,-1.465 2.627,-1.909c1.027,-0.444 2.194,-0.665 3.502,-0.665c1.331,-0 2.504,0.233 3.52,0.7c1.015,0.467 1.862,1.115 2.539,1.944c0.677,0.829 1.185,1.792 1.523,2.889c0.339,1.097 0.508,2.276 0.508,3.537l0,1.436l-12.503,0l0,0.592c0,1.391 0.415,2.534 1.243,3.427c0.829,0.893 2.014,1.339 3.555,1.339c1.121,0 2.066,-0.243 2.837,-0.73c0.77,-0.488 1.424,-1.149 1.961,-1.984l2.242,2.213c-0.677,1.124 -1.658,2.02 -2.942,2.687c-1.284,0.668 -2.779,1.001 -4.483,1.001Zm-0,-16.075c-0.654,0 -1.255,0.117 -1.804,0.351c-0.548,0.233 -1.015,0.56 -1.401,0.98c-0.385,0.421 -0.682,0.922 -0.893,1.506c-0.21,0.584 -0.315,1.226 -0.315,1.926l0,0.246l8.475,-0l0,-0.351c0,-1.401 -0.361,-2.527 -1.085,-3.379c-0.724,-0.852 -1.716,-1.279 -2.977,-1.279Z" style="fill-rule:nonzero;"/><path d="M233.416,79.514l-0,-18.211l3.817,-0l0,3.502l0.175,0c0.257,-0.934 0.794,-1.751 1.611,-2.452c0.817,-0.7 1.95,-1.05 3.397,-1.05l1.016,-0l-0,3.677l-1.506,0c-1.518,0 -2.679,0.245 -3.485,0.736c-0.805,0.49 -1.208,1.214 -1.208,2.171l0,11.627l-3.817,0Z" style="fill-rule:nonzero;"/><path d="M264.83,79.934c-1.587,0 -3.029,-0.274 -4.325,-0.823c-1.296,-0.548 -2.405,-1.354 -3.327,-2.416c-0.922,-1.062 -1.634,-2.382 -2.136,-3.958c-0.502,-1.576 -0.753,-3.391 -0.753,-5.445c-0,-2.055 0.251,-3.87 0.753,-5.446c0.502,-1.576 1.214,-2.895 2.136,-3.958c0.922,-1.062 2.031,-1.868 3.327,-2.416c1.296,-0.549 2.738,-0.823 4.325,-0.823c1.588,-0 3.03,0.274 4.325,0.823c1.296,0.548 2.405,1.354 3.328,2.416c0.922,1.063 1.634,2.382 2.136,3.958c0.502,1.576 0.753,3.391 0.753,5.446c-0,2.054 -0.251,3.869 -0.753,5.445c-0.502,1.576 -1.214,2.896 -2.136,3.958c-0.923,1.062 -2.032,1.868 -3.328,2.416c-1.295,0.549 -2.737,0.823 -4.325,0.823Zm0,-3.502c0.934,0 1.792,-0.164 2.574,-0.492c0.783,-0.328 1.448,-0.803 1.997,-1.424c0.548,-0.621 0.974,-1.377 1.278,-2.267c0.303,-0.891 0.455,-1.899 0.455,-3.024l0,-3.867c0,-1.125 -0.152,-2.133 -0.455,-3.023c-0.304,-0.891 -0.73,-1.647 -1.278,-2.268c-0.549,-0.621 -1.214,-1.096 -1.997,-1.424c-0.782,-0.328 -1.64,-0.492 -2.574,-0.492c-0.957,-0 -1.821,0.164 -2.591,0.492c-0.771,0.328 -1.43,0.803 -1.979,1.424c-0.549,0.621 -0.975,1.377 -1.278,2.268c-0.304,0.89 -0.456,1.898 -0.456,3.023l0,3.867c0,1.125 0.152,2.133 0.456,3.024c0.303,0.89 0.729,1.646 1.278,2.267c0.549,0.621 1.208,1.096 1.979,1.424c0.77,0.328 1.634,0.492 2.591,0.492Z" style="fill-rule:nonzero;"/><path d="M291.482,76.502l-0.175,0c-0.397,1.074 -1.045,1.915 -1.944,2.522c-0.899,0.607 -1.955,0.91 -3.169,0.91c-2.312,0 -4.098,-0.834 -5.359,-2.504c-1.261,-1.669 -1.891,-4.01 -1.891,-7.021c0,-3.012 0.63,-5.353 1.891,-7.022c1.261,-1.67 3.047,-2.504 5.359,-2.504c1.214,-0 2.27,0.297 3.169,0.893c0.899,0.595 1.547,1.441 1.944,2.539l0.175,-0l-0,-10.717l3.817,0l0,25.916l-3.817,0l-0,-3.012Zm-4.133,0.14c1.168,0 2.148,-0.286 2.942,-0.858c0.794,-0.572 1.191,-1.325 1.191,-2.259l-0,-6.233c-0,-0.934 -0.397,-1.687 -1.191,-2.259c-0.794,-0.572 -1.774,-0.858 -2.942,-0.858c-1.33,-0 -2.393,0.426 -3.187,1.278c-0.793,0.852 -1.19,1.979 -1.19,3.38l-0,3.151c-0,1.401 0.397,2.528 1.19,3.38c0.794,0.852 1.857,1.278 3.187,1.278Z" style="fill-rule:nonzero;"/><path d="M307.907,79.934c-1.307,0 -2.475,-0.221 -3.502,-0.665c-1.027,-0.444 -1.903,-1.08 -2.627,-1.909c-0.723,-0.829 -1.278,-1.832 -1.663,-3.012c-0.385,-1.179 -0.578,-2.492 -0.578,-3.939c-0,-1.448 0.193,-2.761 0.578,-3.94c0.385,-1.18 0.94,-2.183 1.663,-3.012c0.724,-0.829 1.6,-1.465 2.627,-1.909c1.027,-0.444 2.195,-0.665 3.502,-0.665c1.331,-0 2.504,0.233 3.52,0.7c1.016,0.467 1.862,1.115 2.539,1.944c0.677,0.829 1.185,1.792 1.523,2.889c0.339,1.097 0.508,2.276 0.508,3.537l0,1.436l-12.503,0l0,0.592c0,1.391 0.415,2.534 1.244,3.427c0.829,0.893 2.013,1.339 3.554,1.339c1.121,0 2.067,-0.243 2.837,-0.73c0.771,-0.488 1.424,-1.149 1.961,-1.984l2.242,2.213c-0.677,1.124 -1.658,2.02 -2.942,2.687c-1.284,0.668 -2.778,1.001 -4.483,1.001Zm0,-16.075c-0.654,0 -1.255,0.117 -1.803,0.351c-0.549,0.233 -1.016,0.56 -1.401,0.98c-0.386,0.421 -0.683,0.922 -0.893,1.506c-0.21,0.584 -0.316,1.226 -0.316,1.926l0,0.246l8.476,-0l-0,-0.351c-0,-1.401 -0.362,-2.527 -1.086,-3.379c-0.724,-0.852 -1.716,-1.279 -2.977,-1.279Z" style="fill-rule:nonzero;"/><path d="M320.235,79.514l-0,-18.211l3.817,-0l0,3.012l0.175,-0c0.397,-0.981 0.999,-1.798 1.804,-2.452c0.806,-0.654 1.909,-0.98 3.31,-0.98c1.867,-0 3.321,0.612 4.36,1.838c1.039,1.226 1.558,2.971 1.558,5.236l0,11.557l-3.817,0l-0,-11.067c-0,-2.848 -1.144,-4.272 -3.432,-4.272c-0.491,-0 -0.975,0.064 -1.454,0.192c-0.478,0.129 -0.904,0.321 -1.278,0.578c-0.374,0.257 -0.671,0.584 -0.893,0.981c-0.222,0.397 -0.333,0.864 -0.333,1.401l0,12.187l-3.817,0Z" style="fill-rule:nonzero;"/><path d="M338.726,61.303l3.713,-0l1.856,7.635l1.646,6.899l0.105,-0l1.891,-6.899l2.207,-7.635l3.432,-0l2.241,7.635l1.926,6.899l0.105,-0l1.611,-6.899l1.892,-7.635l3.537,-0l-4.903,18.211l-4.308,0l-2.381,-8.3l-1.471,-5.113l-0.07,-0l-1.436,5.113l-2.417,8.3l-4.202,0l-4.974,-18.211Z" style="fill-rule:nonzero;"/><path d="M381.873,79.514c-1.004,0 -1.774,-0.286 -2.311,-0.858c-0.537,-0.572 -0.864,-1.301 -0.981,-2.189l-0.175,0c-0.35,1.144 -0.992,2.008 -1.926,2.592c-0.934,0.584 -2.066,0.875 -3.397,0.875c-1.891,0 -3.345,-0.49 -4.36,-1.47c-1.016,-0.981 -1.524,-2.3 -1.524,-3.958c0,-1.821 0.66,-3.187 1.979,-4.097c1.319,-0.911 3.251,-1.366 5.796,-1.366l3.292,-0l0,-1.541c0,-1.121 -0.303,-1.985 -0.91,-2.592c-0.607,-0.607 -1.553,-0.911 -2.837,-0.911c-1.074,0 -1.95,0.234 -2.627,0.701c-0.677,0.467 -1.249,1.062 -1.716,1.786l-2.276,-2.066c0.607,-1.028 1.459,-1.874 2.556,-2.539c1.098,-0.666 2.534,-0.998 4.308,-0.998c2.358,-0 4.168,0.548 5.428,1.646c1.261,1.097 1.892,2.673 1.892,4.728l-0,9.14l1.926,0l-0,3.117l-2.137,0Zm-7.704,-2.486c1.19,-0 2.171,-0.263 2.941,-0.788c0.771,-0.526 1.156,-1.232 1.156,-2.119l0,-2.627l-3.222,0c-2.638,0 -3.957,0.817 -3.957,2.452l-0,0.63c-0,0.817 0.274,1.43 0.823,1.839c0.548,0.408 1.301,0.613 2.259,0.613Z" style="fill-rule:nonzero;"/><path d="M391.645,79.514c-1.308,0 -2.283,-0.333 -2.925,-0.998c-0.642,-0.665 -0.963,-1.593 -0.963,-2.784l0,-22.134l3.817,0l0,22.799l2.522,0l0,3.117l-2.451,0Z" style="fill-rule:nonzero;"/><path d="M409.19,76.502l-0.175,0c-0.397,1.074 -1.044,1.915 -1.943,2.522c-0.899,0.607 -1.956,0.91 -3.17,0.91c-2.311,0 -4.097,-0.834 -5.358,-2.504c-1.261,-1.669 -1.891,-4.01 -1.891,-7.021c-0,-3.012 0.63,-5.353 1.891,-7.022c1.261,-1.67 3.047,-2.504 5.358,-2.504c1.214,-0 2.271,0.297 3.17,0.893c0.899,0.595 1.546,1.441 1.943,2.539l0.175,-0l0,-10.717l3.818,0l-0,25.916l-3.818,0l0,-3.012Zm-4.132,0.14c1.167,0 2.148,-0.286 2.942,-0.858c0.794,-0.572 1.19,-1.325 1.19,-2.259l0,-6.233c0,-0.934 -0.396,-1.687 -1.19,-2.259c-0.794,-0.572 -1.775,-0.858 -2.942,-0.858c-1.331,-0 -2.393,0.426 -3.187,1.278c-0.794,0.852 -1.191,1.979 -1.191,3.38l0,3.151c0,1.401 0.397,2.528 1.191,3.38c0.794,0.852 1.856,1.278 3.187,1.278Z" style="fill-rule:nonzero;"/></g></svg>