<?xml version="1.0" encoding="UTF-8" standalone="no"?>
<!DOCTYPE svg PUBLIC "-//W3C//DTD SVG 1.1//EN" "http://www.w3.org/Graphics/SVG/1.1/DTD/svg11.dtd">
<svg width="100%" height="100%" viewBox="0 0 389 389" version="1.1" xmlns="http://www.w3.org/2000/svg" xmlns:xlink="http://www.w3.org/1999/xlink" xml:space="preserve" xmlns:serif="http://www.serif.com/" style="fill-rule:evenodd;clip-rule:evenodd;stroke-linejoin:round;stroke-miterlimit:2;">
    <g transform="matrix(1,0,0,1,-2981.05,-2326.52)">
        <g id="Nur-Zeichen" serif:id="Nur Zeichen" transform="matrix(0.157896,0,0,0.111055,2979.79,2326.52)">
            <rect x="8" y="0" width="2461" height="3499" style="fill:none;"/>
            <g transform="matrix(32.9737,0,0,46.8814,-34776.4,-121236)">
                <path d="M1085.82,2619.96C1083.4,2621.44 1080.81,2622.18 1078.05,2622.18C1074.41,2622.18 1071.42,2620.98 1069.08,2618.56C1066.74,2616.15 1065.58,2613.07 1065.58,2609.32C1065.58,2605.68 1066.78,2602.67 1069.18,2600.3C1071.58,2597.92 1074.61,2596.73 1078.28,2596.73C1082.85,2596.73 1086.92,2598.97 1090.49,2603.43C1094.02,2598.97 1098.22,2596.73 1103.08,2596.73C1106.8,2596.73 1109.84,2597.92 1112.2,2600.3C1114.56,2602.67 1115.75,2605.73 1115.75,2609.48C1115.75,2613.22 1114.55,2616.28 1112.16,2618.66C1109.77,2621.03 1106.69,2622.22 1102.92,2622.22C1100.05,2622.22 1097.39,2621.32 1094.95,2619.52L1094.95,2630.9C1095.51,2629.97 1096.2,2629.1 1097.04,2628.3C1099.54,2625.86 1102.63,2624.64 1106.31,2624.64C1109.76,2624.64 1112.72,2625.89 1115.19,2628.37C1117.65,2630.85 1118.88,2633.83 1118.88,2637.29C1118.88,2640.81 1117.64,2643.8 1115.14,2646.28C1112.64,2648.75 1109.62,2649.99 1106.09,2649.99C1102.56,2649.99 1099.54,2648.75 1097.04,2646.26C1095.7,2644.95 1094.73,2643.49 1094.1,2641.88C1093.62,2643.26 1092.93,2644.49 1092.03,2645.57C1090.9,2646.92 1089.47,2647.99 1087.74,2648.79C1086.01,2649.59 1084.23,2649.99 1082.41,2649.99C1078.78,2649.99 1075.72,2648.77 1073.23,2646.33C1070.74,2643.88 1069.49,2640.89 1069.49,2637.34C1069.49,2633.91 1070.73,2630.94 1073.2,2628.43C1075.68,2625.92 1078.61,2624.67 1081.99,2624.67C1082.53,2624.67 1083.34,2624.72 1084.43,2624.82L1084.43,2634.87C1083.68,2634.29 1082.93,2634 1082.19,2634C1081.24,2634 1080.43,2634.34 1079.76,2635.03C1079.08,2635.72 1078.74,2636.56 1078.74,2637.54C1078.74,2638.48 1079.09,2639.29 1079.79,2639.97C1080.49,2640.64 1081.33,2640.98 1082.31,2640.98C1084.65,2640.98 1085.82,2639.36 1085.82,2636.12L1085.82,2619.96ZM1095.21,2609.44C1097.36,2612.46 1099.51,2613.97 1101.68,2613.97C1102.97,2613.97 1104.06,2613.54 1104.96,2612.67C1105.85,2611.81 1106.29,2610.73 1106.29,2609.44C1106.29,2608.17 1105.84,2607.11 1104.94,2606.24C1104.03,2605.38 1102.93,2604.94 1101.64,2604.94C1099.47,2604.94 1097.33,2606.44 1095.21,2609.44ZM1086.15,2609.48C1084,2606.48 1081.83,2604.98 1079.64,2604.98C1078.35,2604.98 1077.26,2605.42 1076.36,2606.28C1075.47,2607.15 1075.03,2608.21 1075.03,2609.48C1075.03,2610.74 1075.48,2611.81 1076.38,2612.67C1077.29,2613.54 1078.38,2613.97 1079.68,2613.97C1081.82,2613.97 1083.98,2612.47 1086.15,2609.48ZM1106.07,2633.65C1105.09,2633.65 1104.26,2634.01 1103.58,2634.72C1102.89,2635.42 1102.55,2636.29 1102.55,2637.32C1102.55,2638.33 1102.9,2639.19 1103.59,2639.9C1104.28,2640.62 1105.11,2640.98 1106.07,2640.98C1107.05,2640.98 1107.88,2640.62 1108.57,2639.9C1109.26,2639.19 1109.61,2638.33 1109.61,2637.32C1109.61,2636.29 1109.27,2635.42 1108.58,2634.72C1107.9,2634.01 1107.06,2633.65 1106.07,2633.65Z"/>
            </g>
        </g>
    </g>
</svg>
